# xmcd
#
# Track frame offsets: 
#        150
#        18431
#        40002
#        62471
#        85306
#        111302
#        138366
#        176978
#        201078
#        218913
#        232085
#        255621
#        266441
#        275527
#
# Disc length: 3935 seconds
#
# Revision: 0
# Processed by: cddbd v1.5.2PL0 Copyright (c) Steve Scherf et al.
# Submitted via: ExactAudioCopyFreeDBPlugin 1.0
#
DISCID=cc0f5d0e
DTITLE=Ashford and Simpson - The Real Thing
DYEAR=2009
DGENRE=R&B
TTITLE0=It's Much Deeper
TTITLE1=Your Precious Love
TTITLE2=Stay Free
TTITLE3=Found A Cure
TTITLE4=Still Such a Thing
TTITLE5=Solid
TTITLE6=Gimme Something Real
TTITLE7=I'm Every Woman
TTITLE8=I'm Not That Tough
TTITLE9=Let's Go Get Stoned
TTITLE10=Ain't Nothing Like the Real Thing
TTITLE11=You're All I Need to Get By
TTITLE12=Reach Out and Touch (Somebody's Hand)
TTITLE13=Ain't No Mountain High Enough
EXTD=
EXTT0=
EXTT1=
EXTT2=
EXTT3=
EXTT4=
EXTT5=
EXTT6=
EXTT7=
EXTT8=
EXTT9=
EXTT10=
EXTT11=
EXTT12=
EXTT13=
PLAYORDER=
